<svg width="64" height="64" viewBox="0 0 64 64" fill="none" xmlns="http://www.w3.org/2000/svg">
<g clip-path="url(#clip0_3_1045)">
<path d="M56.3948 35.3979L45.4789 24.482C44.9543 23.9678 44.2491 23.6798 43.5146 23.6798C42.78 23.6798 42.0748 23.9678 41.5502 24.482L40.0256 26.0066C39.5354 26.5086 39.251 27.1759 39.2285 27.8772C39.206 28.5784 39.447 29.2626 39.904 29.795C39.2305 30.3605 38.4477 30.7811 37.6043 31.0306C36.761 31.2801 35.8753 31.353 35.0026 31.2448C33.3692 31.049 31.7146 31.3454 30.2508 32.096H30.1853L26.4438 31.619C26.0252 31.5677 25.6363 31.3765 25.34 31.0764L24.096 29.8324C24.5608 29.3012 24.8083 28.6143 24.7892 27.9087C24.7701 27.2032 24.4859 26.5307 23.9931 26.0254L22.4684 24.5007C21.9438 23.9865 21.2386 23.6985 20.5041 23.6985C19.7696 23.6985 19.0643 23.9865 18.5398 24.5007L7.60514 35.3979C7.09097 35.9225 6.80298 36.6277 6.80298 37.3622C6.80298 38.0967 7.09097 38.802 7.60514 39.3265L9.12981 40.8512C9.63514 41.344 10.3076 41.6283 11.0132 41.6473C11.7188 41.6664 12.4056 41.4189 12.9368 40.9541L15.3314 43.3393C15.6958 43.7134 15.9597 44.1735 16.0984 44.6769C16.592 46.5077 17.56 48.1759 18.9046 49.5129C18.6527 49.986 18.5276 50.5163 18.5414 51.0521C18.5553 51.5879 18.7075 52.1111 18.9834 52.5706C19.2594 53.0302 19.6495 53.4105 20.116 53.6745C20.5824 53.9386 21.1093 54.0774 21.6453 54.0775C21.6428 54.4873 21.7217 54.8934 21.8773 55.2725C22.033 55.6515 22.2623 55.9959 22.552 56.2856C22.8418 56.5753 23.1861 56.8047 23.5652 56.9603C23.9442 57.116 24.3504 57.1949 24.7601 57.1924C24.769 58.0227 25.1051 58.816 25.6955 59.3999C26.1659 59.8715 26.7764 60.1783 27.4355 60.2744C28.0947 60.3704 28.7673 60.2507 29.3528 59.933L29.5212 60.1014C29.8886 60.4717 30.3437 60.7431 30.8441 60.8905C31.3444 61.0378 31.874 61.0564 32.3834 60.9444C32.8929 60.8325 33.3658 60.5936 33.7583 60.25C34.1508 59.9064 34.4501 59.4692 34.6284 58.979L35.0119 59.3625C35.3005 59.6529 35.6437 59.8834 36.0218 60.0407C36.3998 60.198 36.8053 60.279 37.2147 60.279C37.6242 60.279 38.0296 60.198 38.4077 60.0407C38.7857 59.8834 39.1289 59.6529 39.4176 59.3625C39.7268 59.0445 39.9602 58.6608 40.1004 58.24L40.5587 58.6983C41.143 59.2826 41.9353 59.6108 42.7616 59.6108C43.5878 59.6108 44.3802 59.2826 44.9644 58.6983C45.5486 58.1141 45.8768 57.3217 45.8768 56.4955C45.8768 55.6693 45.5486 54.8769 44.9644 54.2927L44.5061 53.8343C44.9261 53.6847 45.3067 53.4416 45.6192 53.1234C45.9133 52.8376 46.1475 52.4959 46.3081 52.1185C46.4687 51.7411 46.5525 51.3355 46.5546 50.9253C46.5523 50.4326 46.4303 49.9479 46.1991 49.5129L46.3768 49.3258C47.5923 48.1223 48.417 46.5805 48.7434 44.9014C48.9993 43.5731 49.6515 42.3535 50.6141 41.4031L51.0912 40.926C51.6224 41.3908 52.3092 41.6383 53.0148 41.6193C53.7204 41.6002 54.3929 41.3159 54.8982 40.8231L56.4229 39.2985C56.9249 38.7716 57.2026 38.0703 57.1974 37.3425C57.1921 36.6148 56.9044 35.9175 56.3948 35.3979ZM10.4206 39.5323L8.89597 38.045C8.72175 37.8698 8.62397 37.6327 8.62397 37.3856C8.62397 37.1385 8.72175 36.9014 8.89597 36.7262L19.84 25.7728C19.9274 25.6808 20.0325 25.6076 20.1491 25.5575C20.2657 25.5075 20.3912 25.4817 20.5181 25.4817C20.645 25.4817 20.7705 25.5075 20.8871 25.5575C21.0037 25.6076 21.1089 25.6808 21.1963 25.7728L22.6461 27.2975C22.7381 27.3849 22.8114 27.49 22.8614 27.6066C22.9115 27.7232 22.9373 27.8488 22.9373 27.9756C22.9373 28.1025 22.9115 28.2281 22.8614 28.3446C22.8114 28.4612 22.7381 28.5664 22.6461 28.6538L11.777 39.5323C11.6896 39.6243 11.5844 39.6975 11.4678 39.7476C11.3512 39.7976 11.2257 39.8234 11.0988 39.8234C10.9719 39.8234 10.8464 39.7976 10.7298 39.7476C10.6132 39.6975 10.508 39.6243 10.4206 39.5323ZM20.7754 51.8981C20.6498 51.7768 20.5499 51.6315 20.4816 51.4708C20.4134 51.3101 20.3782 51.1373 20.3782 50.9627C20.3782 50.7881 20.4134 50.6153 20.4816 50.4546C20.5499 50.2939 20.6498 50.1486 20.7754 50.0273C21.0186 49.788 21.3461 49.6538 21.6874 49.6538C22.0286 49.6538 22.3561 49.788 22.5994 50.0273C22.8474 50.2692 22.9893 50.5997 22.9937 50.9462C22.998 51.2926 22.8646 51.6266 22.6227 51.8747C22.3809 52.1228 22.0503 52.2646 21.7039 52.269C21.3574 52.2734 21.0234 52.14 20.7754 51.8981ZM23.8902 55.0129C23.7068 54.8313 23.5822 54.5988 23.5323 54.3456C23.4823 54.0924 23.5095 53.83 23.6102 53.5923C23.7109 53.3547 23.8805 53.1527 24.0972 53.0124C24.3138 52.8722 24.5675 52.8 24.8256 52.8054C24.9988 52.8002 25.1713 52.8308 25.3322 52.8952C25.4931 52.9595 25.6391 53.0563 25.761 53.1796C25.8854 53.3015 25.9843 53.447 26.0518 53.6076C26.1192 53.7683 26.154 53.9407 26.154 54.115C26.154 54.2892 26.1192 54.4616 26.0518 54.6223C25.9843 54.7829 25.8854 54.9284 25.761 55.0503C25.6352 55.1785 25.4845 55.2796 25.3183 55.3474C25.152 55.4153 24.9736 55.4485 24.7941 55.445C24.6146 55.4415 24.4377 55.4013 24.2742 55.327C24.1107 55.2528 23.9641 55.1459 23.8434 55.0129H23.8902ZM27.005 58.1278C26.8782 58.0072 26.7773 57.8621 26.7083 57.7013C26.6393 57.5405 26.6037 57.3673 26.6037 57.1924C26.6037 57.0174 26.6393 56.8443 26.7083 56.6835C26.7773 56.5227 26.8782 56.3776 27.005 56.257C27.255 56.0134 27.5914 55.8789 27.9404 55.8828C28.1512 55.8872 28.3578 55.9432 28.542 56.0459C28.7262 56.1485 28.8825 56.2948 28.9971 56.4718C29.1117 56.6488 29.1812 56.8512 29.1995 57.0613C29.2178 57.2714 29.1844 57.4828 29.1021 57.677C29.0198 57.8712 28.8912 58.0422 28.7275 58.1752C28.5639 58.3082 28.3701 58.3991 28.1632 58.4398C27.9563 58.4806 27.7425 58.4701 27.5406 58.4092C27.3387 58.3482 27.1548 58.2388 27.005 58.0903V58.1278ZM44.3845 51.87C44.1345 52.1146 43.7987 52.2515 43.4491 52.2515C43.0994 52.2515 42.7636 52.1146 42.5137 51.87L33.0195 42.3385C32.9445 42.22 32.8437 42.12 32.7248 42.0458C32.6059 41.9715 32.4717 41.925 32.3324 41.9096C32.193 41.8941 32.052 41.9102 31.9197 41.9567C31.7874 42.0031 31.6672 42.0787 31.5681 42.1779C31.469 42.277 31.3934 42.3972 31.3469 42.5295C31.3005 42.6617 31.2844 42.8028 31.2998 42.9421C31.3152 43.0815 31.3618 43.2156 31.436 43.3346C31.5103 43.4535 31.6103 43.5542 31.7287 43.6293L43.6736 55.6116C43.7967 55.734 43.8941 55.8798 43.96 56.0405C44.0258 56.2011 44.0588 56.3733 44.0571 56.547C44.0605 56.7208 44.0282 56.8935 43.9622 57.0544C43.8963 57.2153 43.798 57.3609 43.6736 57.4823C43.4304 57.7217 43.1028 57.8558 42.7616 57.8558C42.4203 57.8558 42.0928 57.7217 41.8496 57.4823L29.9047 45.4907C29.7252 45.3769 29.5123 45.3276 29.301 45.351C29.0898 45.3744 28.8928 45.469 28.7425 45.6193C28.5922 45.7696 28.4976 45.9666 28.4742 46.1779C28.4508 46.3891 28.5001 46.602 28.6139 46.7815L38.108 56.2663C38.3561 56.5144 38.4955 56.8509 38.4955 57.2017C38.4955 57.5526 38.3561 57.889 38.108 58.1371C37.8599 58.3852 37.5235 58.5246 37.1726 58.5246C36.8218 58.5246 36.4853 58.3852 36.2373 58.1371L26.7899 48.6055C26.6104 48.4917 26.3974 48.4425 26.1862 48.4658C25.9749 48.4892 25.7779 48.5839 25.6277 48.7341C25.4774 48.8844 25.3827 49.0814 25.3594 49.2927C25.336 49.5039 25.3852 49.7169 25.499 49.8964L32.608 57.0053C32.7308 57.1281 32.8282 57.274 32.8947 57.4345C32.9612 57.5949 32.9954 57.767 32.9954 57.9407C32.9954 58.1144 32.9612 58.2864 32.8947 58.4469C32.8282 58.6074 32.7308 58.7532 32.608 58.8761C32.4851 58.9989 32.3393 59.0963 32.1788 59.1628C32.0183 59.2293 31.8463 59.2635 31.6726 59.2635C31.4989 59.2635 31.3269 59.2293 31.1664 59.1628C31.0059 59.0963 30.86 58.9989 30.7372 58.8761L30.5688 58.7077C30.8242 58.2356 30.9521 57.705 30.9398 57.1684C30.9275 56.6318 30.7755 56.1076 30.4988 55.6477C30.2221 55.1878 29.8302 54.8079 29.3619 54.5457C28.8935 54.2835 28.3649 54.1479 27.8282 54.1524C27.8333 53.7432 27.756 53.3372 27.6009 52.9586C27.4458 52.5799 27.2161 52.2363 26.9255 51.9483C26.6348 51.6603 26.2892 51.4337 25.9091 51.282C25.5291 51.1304 25.1224 51.0568 24.7133 51.0656C24.7266 50.5244 24.5977 49.9891 24.3396 49.5132C24.0814 49.0374 23.703 48.6375 23.242 48.3536C22.7811 48.0696 22.2537 47.9115 21.7126 47.895C21.1714 47.8784 20.6354 48.0041 20.158 48.2594C19.0466 47.1364 18.2527 45.7389 17.857 44.2092C17.6439 43.393 17.214 42.6497 16.6129 42.0578L14.2277 39.682L22.7958 31.1138L24.0305 32.3486C24.6148 32.9291 25.3743 33.3006 26.1912 33.4055L28.1181 33.6487L23.516 38.2508C23.1714 38.572 22.895 38.9592 22.7033 39.3895C22.5116 39.8198 22.4085 40.2842 22.4002 40.7552C22.3918 41.2262 22.4785 41.694 22.6549 42.1308C22.8313 42.5676 23.0939 42.9643 23.427 43.2974C23.7601 43.6305 24.1568 43.8931 24.5936 44.0695C25.0304 44.2459 25.4982 44.3326 25.9692 44.3242C26.4402 44.3159 26.9046 44.2128 27.3349 44.0211C27.7652 43.8294 28.1524 43.553 28.4736 43.2084L31.5697 40.1122C31.8471 39.8408 32.1819 39.6352 32.5494 39.5106C32.9169 39.3859 33.3077 39.3454 33.693 39.392L44.3377 50.0367C44.4596 50.1595 44.5555 50.3057 44.6198 50.4664C44.6841 50.6271 44.7154 50.799 44.7118 50.9721C44.708 51.3085 44.5739 51.6304 44.3377 51.87H44.3845ZM46.9661 44.574C46.7041 45.9002 46.0528 47.1181 45.0954 48.0724L45.0299 48.1378L37.7994 40.926C38.7166 41.1639 39.6582 41.2957 40.6055 41.3189C40.7267 41.3281 40.8485 41.3118 40.963 41.271C41.0776 41.2302 41.1823 41.1659 41.2704 41.0822C41.3585 40.9984 41.4281 40.8972 41.4747 40.7849C41.5213 40.6726 41.5439 40.5518 41.5409 40.4303C41.5409 40.1822 41.4423 39.9443 41.2669 39.7689C41.0915 39.5934 40.8536 39.4949 40.6055 39.4949C38.8319 39.4472 37.096 38.9723 35.5451 38.1105C34.7044 37.637 33.7327 37.4494 32.7761 37.5759C31.8196 37.7024 30.9301 38.1363 30.2414 38.8121L27.1453 41.9082C26.999 42.1 26.8133 42.2581 26.6006 42.3718C26.3879 42.4855 26.1532 42.5522 25.9125 42.5674C25.6718 42.5825 25.4306 42.5458 25.2053 42.4597C24.98 42.3735 24.7759 42.24 24.6067 42.0681C24.4375 41.8962 24.3072 41.6899 24.2247 41.4633C24.1421 41.2367 24.1092 40.995 24.1282 40.7545C24.1472 40.5141 24.2176 40.2805 24.3347 40.0696C24.4518 39.8588 24.6128 39.6755 24.8069 39.5323L29.4838 34.8554C30.1758 34.1704 31.0147 33.6518 31.9368 33.339C32.8589 33.0263 33.8401 32.9275 34.8061 33.0501C35.9442 33.1899 37.099 33.0899 38.1961 32.7564C39.2932 32.4229 40.3083 31.8634 41.1761 31.1138L49.7723 39.682L49.3046 40.1403C48.1001 41.3517 47.2857 42.8959 46.9661 44.574ZM55.132 38.0263L53.5793 39.5323C53.4919 39.6243 53.3867 39.6975 53.2701 39.7476C53.1536 39.7976 53.028 39.8234 52.9011 39.8234C52.7743 39.8234 52.6487 39.7976 52.5321 39.7476C52.4156 39.6975 52.3104 39.6243 52.223 39.5323L41.3538 28.6538C41.2618 28.5664 41.1886 28.4612 41.1385 28.3446C41.0885 28.2281 41.0627 28.1025 41.0627 27.9756C41.0627 27.8488 41.0885 27.7232 41.1385 27.6066C41.1886 27.49 41.2618 27.3849 41.3538 27.2975L42.8785 25.7728C42.9659 25.6808 43.0711 25.6076 43.1876 25.5575C43.3042 25.5075 43.4298 25.4817 43.5566 25.4817C43.6835 25.4817 43.8091 25.5075 43.9257 25.5575C44.0422 25.6076 44.1474 25.6808 44.2348 25.7728L55.104 36.7262C55.2782 36.9014 55.376 37.1385 55.376 37.3856C55.376 37.6327 55.2782 37.8698 55.104 38.045L55.132 38.0263Z" fill="#D1D5DB"/>
<path d="M43.3792 12.2686C43.2923 11.9114 43.022 11.699 42.6744 11.6508L40.8208 11.3901C40.7339 11.1294 40.7725 11.2549 40.647 10.9943L41.7862 9.48822C42.0083 9.22755 42.0083 8.82208 41.8345 8.51314C41.8345 8.46487 41.3518 7.7215 40.2898 6.65954C39.2279 5.59757 38.4748 5.11486 38.4362 5.11486C38.1273 4.94109 37.7315 4.94109 37.4612 5.16314L35.9551 6.31198C35.6944 6.17683 35.8199 6.2251 35.5593 6.13821L35.2986 4.2846C35.2503 3.9274 35.038 3.66673 34.6807 3.57985C34.6421 3.57985 33.7539 3.31918 32.2575 3.31918C30.7611 3.31918 29.873 3.57985 29.8247 3.57985C29.4675 3.66673 29.2551 3.93705 29.2068 4.2846L28.9462 6.13821C28.6855 6.2251 28.811 6.18648 28.5503 6.31198L27.0443 5.16314C26.7836 4.94109 26.3781 4.94109 26.0692 5.11486C26.0209 5.11486 25.2776 5.59757 24.2156 6.65954C23.1536 7.7215 22.6709 8.47453 22.6709 8.51314C22.4971 8.82208 22.4971 9.2179 22.7192 9.48822L23.868 10.9943C23.7329 11.2549 23.7812 11.168 23.6943 11.4384L21.8407 11.6604C21.4835 11.7087 21.2228 11.9211 21.1359 12.2783C21.1359 12.3266 20.8752 13.2051 20.8752 14.7111C20.8752 16.2172 21.1359 17.0957 21.1359 17.144C21.2228 17.5012 21.4931 17.7136 21.8407 17.7619L23.6943 18.0225C23.7812 18.2832 23.7425 18.1577 23.868 18.4183L22.7192 19.9148C22.4971 20.1754 22.4971 20.5809 22.6709 20.8898C22.6709 20.9381 23.1536 21.6815 24.2156 22.7434C25.2776 23.8054 26.0306 24.2881 26.0692 24.2881C26.3781 24.4619 26.774 24.4619 27.0443 24.2398L28.5407 23.091C28.8013 23.2261 28.7145 23.1779 28.9848 23.2648L29.2068 25.1184C29.2551 25.4756 29.4675 25.7362 29.8247 25.8231C29.873 25.8231 30.7515 26.0838 32.2575 26.0838C33.7636 26.0838 34.6421 25.8231 34.6904 25.8231C35.0476 25.7362 35.26 25.4659 35.3083 25.1184L35.5689 23.2648C35.8296 23.1779 35.7041 23.2165 35.9648 23.091L37.4708 24.2398C37.7315 24.4619 38.137 24.4619 38.4459 24.2881C38.4942 24.2881 39.2375 23.8054 40.2995 22.7434C41.3615 21.6815 41.8442 20.9284 41.8442 20.8898C42.0179 20.5809 42.0179 20.1851 41.7959 19.9148L40.647 18.4087C40.7822 18.148 40.7339 18.2735 40.8208 18.0129L42.6744 17.7522C43.0316 17.7039 43.2923 17.4915 43.3792 17.1343C43.3792 17.0861 43.6398 16.2075 43.6398 14.7015C43.6495 13.1954 43.3792 12.3169 43.3792 12.2686ZM41.8345 16.1593L40.0678 16.3813C39.7589 16.4296 39.4499 16.642 39.363 16.9509C39.1024 17.7039 39.1893 17.4819 38.8803 18.1384C38.7452 18.4473 38.7934 18.8045 38.9672 19.0652L40.0678 20.4361C39.8457 20.6967 39.5368 21.1022 39.0927 21.5367C38.6486 21.9807 38.3011 22.2897 38.0308 22.5117L36.6212 21.4015C36.3606 21.2277 36.0034 21.1795 35.6944 21.3146C34.9414 21.6718 35.2986 21.5367 34.507 21.7973C34.198 21.8842 33.976 22.1931 33.9374 22.5021L33.7153 24.2688C33.3581 24.3171 32.8754 24.3557 32.2575 24.3557C31.6397 24.3557 31.157 24.3074 30.7998 24.2688L30.5777 22.5021C30.5294 22.1931 30.317 21.8842 30.0081 21.7973C29.2551 21.5367 29.4771 21.6235 28.8207 21.3146C28.5117 21.1795 28.2028 21.2277 27.9421 21.4015L26.5326 22.5021C26.2719 22.28 25.8665 21.9711 25.432 21.527C24.9976 21.0829 24.7273 20.7354 24.5052 20.465L25.5672 19.0555C25.741 18.7949 25.7892 18.4377 25.6541 18.1287C25.2969 17.4626 25.432 17.6846 25.1714 16.9413C25.0845 16.6323 24.7755 16.4103 24.4666 16.3717L22.6709 16.1496C22.6227 15.7924 22.584 15.3097 22.584 14.6918C22.584 14.074 22.6323 13.5913 22.6709 13.234L24.4376 13.012C24.7466 12.9637 25.0555 12.7513 25.1424 12.4424C25.2293 12.1335 25.3644 11.8728 25.3644 11.8245C25.3644 11.8245 25.4996 11.5156 25.6251 11.2549C25.7603 10.946 25.712 10.6371 25.5382 10.3764L24.4763 8.96689C24.6983 8.70623 24.959 8.30075 25.4031 7.86631C25.8472 7.42222 26.243 7.16155 26.5036 6.93951L27.9132 8.00147C28.1738 8.17525 28.4828 8.22352 28.7917 8.08836C29.4578 7.73115 29.2358 7.86631 29.9792 7.60565C30.2881 7.51876 30.5101 7.20983 30.5488 6.90089L30.7708 5.13417C31.128 5.0859 31.6107 5.04728 32.2286 5.04728C32.8464 5.04728 33.3292 5.09556 33.6864 5.13417L33.9084 6.90089C33.9567 7.20983 34.1691 7.51876 34.478 7.60565C35.231 7.86631 35.009 7.77942 35.6655 8.08836C35.9744 8.22352 36.3316 8.17525 36.5923 8.00147L38.0018 6.93951C38.2625 7.16155 38.6197 7.42222 39.0638 7.86631C39.5078 8.3104 39.8168 8.70623 40.0388 8.96689L38.9382 10.3764C38.7645 10.6371 38.7162 10.946 38.8514 11.2549C39.2086 12.008 39.112 11.6508 39.3823 12.4424C39.4692 12.7513 39.7395 12.9734 40.0485 13.012L41.8152 13.234C41.8635 13.5913 41.9021 14.074 41.9021 14.6918C41.9214 15.3194 41.8731 15.8021 41.8345 16.1593Z" fill="#D1D5DB"/>
<path d="M32.2574 9.26617C29.255 9.26617 26.8318 11.699 26.8318 14.6918C26.8318 17.6846 29.2646 20.1175 32.2574 20.1175C35.2599 20.1175 37.6831 17.6846 37.6831 14.6918C37.6831 11.699 35.2502 9.26617 32.2574 9.26617ZM32.2574 18.4087C30.1818 18.4087 28.5502 16.7771 28.5502 14.7015C28.5502 12.6258 30.1818 10.9943 32.2574 10.9943C34.3331 10.9943 35.9647 12.6258 35.9647 14.7015C35.9647 16.7771 34.3234 18.4087 32.2574 18.4087Z" fill="#D1D5DB"/>
</g>
<defs>
<clipPath id="clip0_3_1045">
<rect width="64" height="64" fill="white"/>
</clipPath>
</defs>
</svg>
